<svg width="24" height="24" viewBox="0 0 24 24" fill="none" xmlns="http://www.w3.org/2000/svg">
<path opacity="0.25" d="M1 6C1 4.34315 2.34315 3 4 3H20C21.6569 3 23 4.34315 23 6V18C23 19.6569 21.6569 21 20 21H4C2.34315 21 1 19.6569 1 18V6Z" fill="#009BBA"/>
<path fill-rule="evenodd" clip-rule="evenodd" d="M5.2318 7.35984C5.58537 6.93556 6.21593 6.87824 6.64021 7.2318L11.3598 11.1648C11.7307 11.4739 12.2694 11.4739 12.6402 11.1648L17.3598 7.2318C17.7841 6.87824 18.4147 6.93556 18.7682 7.35984C19.1218 7.78412 19.0645 8.41468 18.6402 8.76825L13.9206 12.7013C12.808 13.6284 11.192 13.6284 10.0795 12.7013L5.35984 8.76825C4.93556 8.41468 4.87824 7.78412 5.2318 7.35984Z" fill="#009BBA"/>
</svg>
