<svg width="24" height="24" viewBox="0 0 24 24" fill="none" xmlns="http://www.w3.org/2000/svg">
<g clip-path="url(#clip0_4759_43219)">
<path opacity="0.25" d="M21.3915 19.577L19.4866 21.4819C19.4866 21.4819 14.5368 23.6032 7.46575 16.5322C0.394682 9.46109 2.516 4.51134 2.516 4.51134L4.42093 2.60641C5.28155 1.74579 6.70489 1.84695 7.43515 2.82062L9.25342 5.24499C9.8506 6.04123 9.77142 7.15542 9.06764 7.8592L7.46575 9.46109C7.46575 9.46109 7.46575 10.8753 10.2942 13.7037C13.1226 16.5322 14.5368 16.5322 14.5368 16.5322L16.1387 14.9303C16.8425 14.2265 17.9567 14.1473 18.7529 14.7445L21.1773 16.5628C22.151 17.293 22.2521 18.7164 21.3915 19.577Z" fill="#009BBA"/>
<path d="M4.41995 2.61024L3.92923 3.10096L8.17188 8.75781L9.06665 7.86303C9.77044 7.15925 9.84962 6.04506 9.25244 5.24882L7.43417 2.82445C6.70391 1.85077 5.28057 1.74962 4.41995 2.61024Z" fill="#009BBA"/>
<path d="M21.3898 19.58L20.899 20.0708L15.2422 15.8281L16.137 14.9333C16.8408 14.2296 17.9549 14.1504 18.7512 14.7476L21.1755 16.5658C22.1492 17.2961 22.2504 18.7194 21.3898 19.58Z" fill="#009BBA"/>
</g>
<defs>
<clipPath id="clip0_4759_43219">
<rect width="24" height="24" fill="white"/>
</clipPath>
</defs>
</svg>
